<svg width="28" height="28" viewBox="0 0 28 28" fill="none" xmlns="http://www.w3.org/2000/svg"><rect width="28" height="28" rx="7" fill="#0a6ebd"/><path d="M20 11.5C19.5 11.7 19 11.8 18.5 11.9C19 11.6 19.4 11.1 19.6 10.5C19.1 10.8 18.6 11 18 11.1C17.6 10.7 17 10.5 16.4 10.5C15.1 10.5 14 11.6 14 12.9C14 13.1 14 13.3 14.1 13.5C12.2 13.4 10.6 12.5 9.5 11.2C9.3 11.5 9.2 11.8 9.2 12.2C9.2 13 9.6 13.7 10.2 14.1C9.8 14.1 9.4 14 9 13.8C9 13.8 9 13.8 9 13.9C9 15 9.8 15.9 10.9 16.1C10.7 16.2 10.5 16.2 10.3 16.2C10.1 16.2 9 16.2 9 16.2C9.7 17.1 10.7 17.7 11.8 17.7C10.9 18.3 9.8 18.7 8.6 18.7C8.4 18.7 8.2 18.7 8 18.7C9.1 19.3 10.4 19.7 11.8 19.7C16.4 19.7 19.2 16.2 19.2 13.2C19.2 13.1 19.2 13 19.2 12.9C19.7 12.6 20.1 12.1 20 11.5Z" fill="#fff"/></svg>
